<svg id="Capa_1" enable-background="new 0 0 512 512" height="512" viewBox="0 0 512 512" width="512" xmlns="http://www.w3.org/2000/svg" xmlns:xlink="http://www.w3.org/1999/xlink"><linearGradient id="SVGID_1_" gradientUnits="userSpaceOnUse" x1="256" x2="256" y1="512" y2="0"><stop offset="0" stop-color="#a93aff"/><stop offset="1" stop-color="#ff81ff"/></linearGradient><g><g><g><path d="m225 272h-210c-8.284 0-15 6.716-15 15v210c0 8.284 6.716 15 15 15h210c8.284 0 15-6.716 15-15v-210c0-8.284-6.716-15-15-15zm-15 210h-180v-180h180zm-90-482c-66.168 0-120 53.832-120 120s53.832 120 120 120 120-53.832 120-120-53.832-120-120-120zm0 210c-49.626 0-90-40.374-90-90s40.374-90 90-90 90 40.374 90 90-40.374 90-90 90zm317-210h-90c-41.355 0-75 33.645-75 75v90c0 41.355 33.645 75 75 75h90c41.355 0 75-33.645 75-75v-90c0-41.355-33.645-75-75-75zm45 165c0 24.813-20.187 45-45 45h-90c-24.813 0-45-20.187-45-45v-90c0-24.813 20.187-45 45-45h90c24.813 0 45 20.187 45 45zm-35.901 111.393c-2.813-2.813-6.628-4.393-10.606-4.393h-86.984c-3.978 0-7.793 1.58-10.606 4.393l-61.508 61.508c-2.813 2.813-4.394 6.628-4.394 10.607v86.985c0 3.978 1.581 7.793 4.394 10.607l61.508 61.508c2.813 2.813 6.628 4.393 10.606 4.393h86.984c3.978 0 7.793-1.58 10.606-4.393l61.508-61.508c2.813-2.813 4.394-6.628 4.394-10.607v-86.985c0-3.978-1.581-7.793-4.394-10.607zm35.901 152.886-52.721 52.721h-74.558l-52.721-52.721v-74.559l52.721-52.72h74.558l52.721 52.721z" fill="url(#SVGID_1_)"/></g></g></g></svg>