<svg id="Capa_1" enable-background="new 0 0 512 512" height="512" viewBox="0 0 512 512" width="512" xmlns="http://www.w3.org/2000/svg" xmlns:xlink="http://www.w3.org/1999/xlink"><linearGradient id="SVGID_1_" gradientUnits="userSpaceOnUse" x1="256" x2="256" y1="512" y2="0"><stop offset="0" stop-color="#fd5900"/><stop offset="1" stop-color="#ffde00"/></linearGradient><g><g><g><path d="m317 90c-57.897 0-105 47.103-105 105s47.103 105 105 105 105-47.103 105-105-47.103-105-105-105zm0 180c-41.355 0-75-33.645-75-75s33.645-75 75-75 75 33.645 75 75-33.645 75-75 75zm0-270c-107.523 0-195 87.477-195 195 0 37.494 10.647 72.544 29.061 102.303l-146.668 146.668c-5.858 5.858-5.858 15.355 0 21.213l42.422 42.422c2.813 2.814 6.629 4.394 10.607 4.394s7.793-1.58 10.606-4.393l146.668-146.668c29.76 18.414 64.81 29.061 102.304 29.061 107.523 0 195-87.477 195-195s-87.477-195-195-195zm-259.578 475.787-21.208-21.209 132.772-132.773c6.519 7.598 13.61 14.69 21.209 21.209zm259.578-115.787c-90.981 0-165-74.019-165-165s74.019-165 165-165 165 74.019 165 165-74.019 165-165 165zm30-180h-15v-15c0-8.284-6.716-15-15-15s-15 6.716-15 15v15h-15c-8.284 0-15 6.716-15 15s6.716 15 15 15h15v15c0 8.284 6.716 15 15 15s15-6.716 15-15v-15h15c8.284 0 15-6.716 15-15s-6.716-15-15-15z" fill="url(#SVGID_1_)"/></g></g></g></svg>