<svg id="Capa_1" enable-background="new 0 0 512 512" height="512" viewBox="0 0 512 512" width="512" xmlns="http://www.w3.org/2000/svg" xmlns:xlink="http://www.w3.org/1999/xlink"><linearGradient id="SVGID_1_" gradientUnits="userSpaceOnUse" x1="256" x2="256" y1="512" y2="0"><stop offset="0" stop-color="#00b59c"/><stop offset="1" stop-color="#9cffac"/></linearGradient><g><g><g><path d="m347 180h-60c-8.284 0-15 6.716-15 15s6.716 15 15 15h60c8.284 0 15-6.716 15-15s-6.716-15-15-15zm-30-180c-107.523 0-195 87.477-195 195 0 37.494 10.647 72.544 29.062 102.303l-146.668 146.669c-5.858 5.858-5.858 15.355 0 21.213l42.422 42.422c2.812 2.813 6.628 4.393 10.606 4.393s7.794-1.58 10.606-4.393l146.668-146.668c29.76 18.414 64.81 29.061 102.304 29.061 107.523 0 195-87.477 195-195s-87.476-195-195-195zm-259.578 475.787-21.209-21.209 132.772-132.773c6.519 7.598 13.611 14.69 21.209 21.209zm259.578-115.787c-90.981 0-165-74.019-165-165s74.019-165 165-165 165 74.019 165 165c0 90.982-74.018 165-165 165zm0-270c-57.897 0-105 47.103-105 105s47.103 105 105 105 105-47.103 105-105-47.102-105-105-105zm0 180c-41.355 0-75-33.645-75-75s33.645-75 75-75 75 33.645 75 75-33.644 75-75 75z" fill="url(#SVGID_1_)"/></g></g></g></svg>