<svg id="Capa_1" enable-background="new 0 0 512 512" height="512" viewBox="0 0 512 512" width="512" xmlns="http://www.w3.org/2000/svg" xmlns:xlink="http://www.w3.org/1999/xlink"><linearGradient id="SVGID_1_" gradientUnits="userSpaceOnUse" x1="256" x2="256" y1="512" y2="0"><stop offset="0" stop-color="#00b59c"/><stop offset="1" stop-color="#9cffac"/></linearGradient><g><g><g><path d="m179.417 38.292c-2.507-5.017-7.71-8.292-13.417-8.292-5.746 0-10.928 3.312-13.417 8.292l-120 240c-2.111 4.223-2.111 9.194 0 13.417l57.832 115.663-14.22 87.215c-.708 4.343.526 8.777 3.376 12.13s7.029 5.283 11.429 5.283h150c4.4 0 8.578-1.932 11.428-5.284s4.084-7.787 3.376-12.13l-14.22-87.215 57.832-115.663c2.111-4.223 2.111-9.194 0-13.417zm-13.417 220.249 11.749 23.497-11.749 11.749-11.749-11.749zm-57.356 223.459 10.109-62h94.495l10.109 62zm108.085-92h-101.458l-52.5-105 88.229-176.459v112.918l-28.417 56.833c-2.887 5.775-1.755 12.75 2.81 17.315l30 30c2.929 2.929 6.768 4.393 10.607 4.393s7.678-1.464 10.606-4.393l30-30c4.565-4.565 5.697-11.54 2.81-17.315l-28.416-56.833v-112.918l88.229 176.459zm159.271-390c-57.897 0-105 47.103-105 105s47.103 105 105 105 105-47.103 105-105-47.103-105-105-105zm0 180c-41.355 0-75-33.645-75-75s33.645-75 75-75 75 33.645 75 75-33.645 75-75 75zm30-90h-15v-15c0-8.284-6.716-15-15-15s-15 6.716-15 15v15h-15c-8.284 0-15 6.716-15 15s6.716 15 15 15h15v15c0 8.284 6.716 15 15 15s15-6.716 15-15v-15h15c8.284 0 15-6.716 15-15s-6.716-15-15-15z" fill="url(#SVGID_1_)"/></g></g></g></svg>