<svg id="Capa_1" enable-background="new 0 0 512 512" height="512" viewBox="0 0 512 512" width="512" xmlns="http://www.w3.org/2000/svg" xmlns:xlink="http://www.w3.org/1999/xlink"><linearGradient id="SVGID_1_" gradientUnits="userSpaceOnUse" x1="256" x2="256" y1="496" y2="16"><stop offset="0" stop-color="#5558ff"/><stop offset="1" stop-color="#00c0ff"/></linearGradient><g><g><g><path d="m401.124 125.794c-70.594-70.057-165.612-109.794-266.124-109.794-5.653 0-10.893 3.233-13.417 8.292l-120 240c-2.111 4.223-2.111 9.194 0 13.417l57.819 115.637-14.198 85.188c-.725 4.349.5 8.797 3.351 12.162 2.85 3.364 7.036 5.304 11.445 5.304h150c4.409 0 8.595-1.94 11.445-5.304s4.076-7.812 3.351-12.162l-14.198-85.188 57.819-115.637c2.111-4.223 2.111-9.194 0-13.417l-108.71-217.42c179.85 12.639 322.293 162.153 322.293 344.128 0 8.284 6.716 15 15 15s15-6.716 15-15c0-100.983-40.548-195.414-110.876-265.206zm-266.124 118.747 11.749 23.497-11.749 11.749-11.749-11.749zm-57.293 221.459 10-60h94.586l10 60zm160.522-195-52.5 105h-101.458l-52.5-105 88.229-176.459v112.918l-28.417 56.833c-2.887 5.775-1.755 12.75 2.81 17.315l30 30c2.929 2.929 6.768 4.393 10.607 4.393s7.678-1.464 10.606-4.393l30-30c4.565-4.565 5.697-11.54 2.81-17.315l-28.416-56.833v-112.918z" fill="url(#SVGID_1_)"/></g></g></g></svg>