<svg id="Capa_1" enable-background="new 0 0 512 512" height="512" viewBox="0 0 512 512" width="512" xmlns="http://www.w3.org/2000/svg" xmlns:xlink="http://www.w3.org/1999/xlink"><linearGradient id="SVGID_1_" gradientUnits="userSpaceOnUse" x1="256" x2="256" y1="512" y2="0"><stop offset="0" stop-color="#a93aff"/><stop offset="1" stop-color="#ff81ff"/></linearGradient><g><g><g><path d="m497 0h-60c-8.284 0-15 6.716-15 15v15h-332v-15c0-8.284-6.716-15-15-15h-60c-8.284 0-15 6.716-15 15v60c0 8.284 6.716 15 15 15h60c8.284 0 15-6.716 15-15v-15h62.195c-54.749 34.567-91.195 95.603-91.195 165 0 8.284 6.716 15 15 15s15-6.716 15-15c0-82.403 60.719-150.89 139.766-163.072l-108.182 216.364c-2.112 4.223-2.112 9.194 0 13.417l57.831 115.662-14.22 87.215c-.708 4.343.526 8.777 3.377 12.13 2.85 3.352 7.028 5.284 11.428 5.284h150c4.4 0 8.578-1.932 11.428-5.284 2.851-3.352 4.085-7.787 3.377-12.13l-14.22-87.215 57.831-115.662c2.112-4.223 2.112-9.194 0-13.417l-108.182-216.364c79.047 12.182 139.766 80.669 139.766 163.072 0 8.284 6.716 15 15 15s15-6.716 15-15c0-69.397-36.446-130.433-91.195-165h62.195v15c0 8.284 6.716 15 15 15h60c8.284 0 15-6.716 15-15v-60c0-8.284-6.716-15-15-15zm-437 60h-30v-30h30zm196 198.541 11.749 23.497-11.749 11.749-11.749-11.749zm-57.356 223.459 10.108-62h94.496l10.108 62zm160.585-197-52.5 105h-101.459l-52.5-105 88.23-176.459v112.919l-28.416 56.832c-2.888 5.775-1.756 12.75 2.81 17.315l30 30c2.928 2.929 6.767 4.393 10.606 4.393s7.678-1.464 10.606-4.393l30-30c4.565-4.565 5.697-11.54 2.81-17.315l-28.416-56.832v-112.919zm122.771-225h-30v-30h30z" fill="url(#SVGID_1_)"/></g></g></g></svg>