<svg id="Capa_1" enable-background="new 0 0 512 512" height="512" viewBox="0 0 512 512" width="512" xmlns="http://www.w3.org/2000/svg" xmlns:xlink="http://www.w3.org/1999/xlink"><linearGradient id="SVGID_1_" gradientUnits="userSpaceOnUse" x1="256" x2="256" y1="512" y2="0"><stop offset="0" stop-color="#fd5900"/><stop offset="1" stop-color="#ffde00"/></linearGradient><g><g><g><path d="m497 0h-242c-8.284 0-15 6.716-15 15v107h-45c-41.282 0-74.881 33.527-75 74.781v46.056c-67.406 7.487-120 64.794-120 134.163 0 74.439 60.561 135 135 135 69.369 0 126.676-52.595 134.162-120h45.838c41.282 0 74.881-33.527 75-74.781 0-.033 0-45.219 0-45.219h107c8.284 0 15-6.716 15-15v-242c0-8.284-6.716-15-15-15zm-362 482c-57.897 0-105-47.103-105-105s47.103-105 105-105 105 47.103 105 105-47.103 105-105 105zm225-165c0 24.813-20.187 45-45 45h-45.838c-6.939-62.479-56.683-112.223-119.162-119.162v-45.838c0-24.813 20.187-45 45-45h120c24.813 0 45 20.187 45 45zm122-75h-92v-45c0-41.282-33.527-74.881-74.781-75-.033 0-45.219 0-45.219 0v-92h212z" fill="url(#SVGID_1_)"/></g></g></g></svg>