<svg id="Capa_1" enable-background="new 0 0 512 512" height="512" viewBox="0 0 512 512" width="512" xmlns="http://www.w3.org/2000/svg" xmlns:xlink="http://www.w3.org/1999/xlink"><linearGradient id="SVGID_1_" gradientUnits="userSpaceOnUse" x1="256" x2="256" y1="496" y2="16"><stop offset="0" stop-color="#5558ff"/><stop offset="1" stop-color="#00c0ff"/></linearGradient><g><g><g><path d="m497 16h-482c-8.284 0-15 6.716-15 15v180c0 8.284 6.716 15 15 15h482c8.284 0 15-6.716 15-15v-180c0-8.284-6.716-15-15-15zm-15 180h-452v-60h302v15c0 8.284 6.716 15 15 15h60c8.284 0 15-6.716 15-15v-60c0-8.284-6.716-15-15-15h-60c-8.284 0-15 6.716-15 15v15h-302v-60h452zm-120-60v-30h30v30zm45 150h-392c-8.284 0-15 6.716-15 15v180c0 8.284 6.716 15 15 15h392c57.897 0 105-47.103 105-105s-47.103-105-105-105zm0 180h-377v-60h302v15c0 8.284 6.716 15 15 15h60c8.284 0 15-6.716 15-15v-60c0-8.284-6.716-15-15-15h-60c-8.284 0-15 6.716-15 15v15h-302v-60h377c41.355 0 75 33.645 75 75s-33.645 75-75 75zm-45-60v-30h30v30z" fill="url(#SVGID_1_)"/></g></g></g></svg>