<svg id="Capa_1" enable-background="new 0 0 512 512" height="512" viewBox="0 0 512 512" width="512" xmlns="http://www.w3.org/2000/svg" xmlns:xlink="http://www.w3.org/1999/xlink"><linearGradient id="SVGID_1_" gradientUnits="userSpaceOnUse" x1="256" x2="256" y1="512" y2="0"><stop offset="0" stop-color="#a93aff"/><stop offset="1" stop-color="#ff81ff"/></linearGradient><g><g><g><path d="m136 271c0 66.168 53.832 120 120 120s120-53.832 120-120-53.832-120-120-120-120 53.832-120 120zm210 0c0 49.626-40.374 90-90 90s-90-40.374-90-90 40.374-90 90-90 90 40.374 90 90zm-80.29 210.776c-3.216.149-6.483.224-9.71.224-115.794 0-210-94.654-210-211 0-114.222 90.8-207.528 203.683-210.896l-4.29 4.29c-5.858 5.858-5.858 15.355 0 21.213 5.857 5.857 15.355 5.858 21.213 0l30-30c5.858-5.858 5.858-15.355 0-21.213l-30-30c-5.857-5.858-15.355-5.858-21.213 0s-5.858 15.355 0 21.213l4.472 4.472c-129.217 3.261-233.865 110.116-233.865 240.921 0 132.397 107.465 241 240 241 3.686 0 7.418-.086 11.094-.256 8.275-.382 14.674-7.4 14.292-15.676-.382-8.275-7.41-14.668-15.676-14.292zm229.672-228.079c-.591-8.263-7.778-14.485-16.033-13.891-8.263.592-14.482 7.77-13.891 16.033.359 5.011.542 10.113.542 15.161 0 13.635-1.32 27.287-3.924 40.578-1.593 8.13 3.707 16.011 11.836 17.604 8.167 1.599 16.018-3.743 17.604-11.836 2.975-15.187 4.484-30.78 4.484-46.347 0-5.761-.208-11.582-.618-17.302zm-41.298-52.484c2.77 7.836 11.354 11.897 19.141 9.145 7.811-2.76 11.905-11.33 9.145-19.141-7.102-20.095-16.891-39.199-29.096-56.78-4.724-6.805-14.071-8.492-20.875-3.768-6.806 4.724-8.492 14.071-3.768 20.876 10.679 15.384 19.243 32.095 25.453 49.668zm10.158 156.46c-7.422-3.679-16.422-.645-20.101 6.778-8.29 16.725-18.784 32.325-31.19 46.365-5.485 6.208-4.899 15.688 1.309 21.173 6.192 5.471 15.673 4.916 21.173-1.309 14.153-16.017 26.126-33.818 35.587-52.906 3.679-7.422.644-16.421-6.778-20.101zm-52.111-249.232c5.333-6.339 4.517-15.802-1.822-21.135-16.374-13.775-34.484-25.298-53.826-34.248-7.517-3.479-16.434-.204-19.913 7.314s-.205 16.434 7.314 19.912c16.925 7.832 32.776 17.918 47.112 29.979 6.353 5.344 15.814 4.503 21.135-1.822zm-41.345 339.035c-15.636 10.327-32.534 18.495-50.223 24.277-7.874 2.574-12.171 11.043-9.598 18.918 2.578 7.886 11.054 12.168 18.918 9.598 20.238-6.615 39.563-15.954 57.436-27.76 6.913-4.566 8.815-13.871 4.25-20.783-4.566-6.912-13.87-8.815-20.783-4.25z" fill="url(#SVGID_1_)"/></g></g></g></svg>