<svg id="Capa_1" enable-background="new 0 0 512 512" height="512" viewBox="0 0 512 512" width="512" xmlns="http://www.w3.org/2000/svg" xmlns:xlink="http://www.w3.org/1999/xlink"><linearGradient id="SVGID_1_" gradientUnits="userSpaceOnUse" x1="256" x2="256" y1="512" y2="0"><stop offset="0" stop-color="#fd3a84"/><stop offset="1" stop-color="#ffa68d"/></linearGradient><g><g><g><path d="m287 482h-45v-197c0-8.284-6.716-15-15-15h-197v-45c0-8.284-6.716-15-15-15s-15 6.716-15 15v272c0 8.284 6.716 15 15 15h272c8.284 0 15-6.716 15-15s-6.716-15-15-15zm-75 0h-182v-182h182zm195 0h-60c-8.284 0-15 6.716-15 15s6.716 15 15 15h60c8.284 0 15-6.716 15-15s-6.716-15-15-15zm-392-302c8.284 0 15-6.716 15-15v-60c0-8.284-6.716-15-15-15s-15 6.716-15 15v60c0 8.284 6.716 15 15 15zm0-120c8.284 0 15-6.716 15-15v-15h15c8.284 0 15-6.716 15-15s-6.716-15-15-15h-30c-8.284 0-15 6.716-15 15v30c0 8.284 6.716 15 15 15zm212-30h60c8.284 0 15-6.716 15-15s-6.716-15-15-15h-60c-8.284 0-15 6.716-15 15s6.716 15 15 15zm-122 0h62c8.284 0 15-6.716 15-15s-6.716-15-15-15h-62c-8.284 0-15 6.716-15 15s6.716 15 15 15zm302-30h-60c-8.284 0-15 6.716-15 15s6.716 15 15 15h60c8.284 0 15-6.716 15-15s-6.716-15-15-15zm90 90c-8.284 0-15 6.716-15 15v60c0 8.284 6.716 15 15 15s15-6.716 15-15v-60c0-8.284-6.716-15-15-15zm0 120c-8.284 0-15 6.716-15 15v60c0 8.284 6.716 15 15 15s15-6.716 15-15v-60c0-8.284-6.716-15-15-15zm0-210h-30c-8.284 0-15 6.716-15 15s6.716 15 15 15h15v15c0 8.284 6.716 15 15 15s15-6.716 15-15v-30c0-8.284-6.716-15-15-15zm0 452c-8.284 0-15 6.716-15 15v15h-15c-8.284 0-15 6.716-15 15s6.716 15 15 15h30c8.284 0 15-6.716 15-15v-30c0-8.284-6.716-15-15-15zm0-122c-8.284 0-15 6.716-15 15v62c0 8.284 6.716 15 15 15s15-6.716 15-15v-62c0-8.284-6.716-15-15-15zm-79.396-235.609c-2.705-2.703-6.538-4.391-10.607-4.391h-59.997c-8.284 0-15 6.716-15 15s6.716 15 15 15h23.787l-94.393 94.393c-5.858 5.858-5.858 15.355 0 21.213 5.857 5.857 15.355 5.858 21.213 0l94.393-94.393v23.787c0 8.284 6.716 15 15 15s15-6.716 15-15v-59.995c.002-4.083-1.723-7.941-4.394-10.612 0 0-.001-.001-.002-.002z" fill="url(#SVGID_1_)"/></g></g></g></svg>