<svg id="Capa_1" enable-background="new 0 0 512 512" height="512" viewBox="0 0 512 512" width="512" xmlns="http://www.w3.org/2000/svg" xmlns:xlink="http://www.w3.org/1999/xlink"><linearGradient id="SVGID_1_" gradientUnits="userSpaceOnUse" x1="256" x2="256" y1="512" y2="0"><stop offset="0" stop-color="#fd5900"/><stop offset="1" stop-color="#ffde00"/></linearGradient><g><g><g><path d="m256 451c-8.284 0-15 6.716-15 15v31c0 8.284 6.716 15 15 15s15-6.716 15-15v-31c0-8.284-6.716-15-15-15zm0-180c-8.284 0-15 6.716-15 15v30c0 8.284 6.716 15 15 15s15-6.716 15-15v-30c0-8.284-6.716-15-15-15zm-50.429-26.55-181-150c-4.476-3.708-10.689-4.499-15.952-2.026-5.261 2.473-8.619 7.763-8.619 13.576v300c0 5.813 3.358 11.103 8.619 13.575 5.243 2.465 11.462 1.695 15.952-2.026l181-150c3.439-2.849 5.429-7.083 5.429-11.549s-1.99-8.7-5.429-11.55zm-175.571 129.637v-236.174l142.492 118.087zm226-13.087c-8.284 0-15 6.716-15 15v30c0 8.284 6.716 15 15 15s15-6.716 15-15v-30c0-8.284-6.716-15-15-15zm247.381-268.575c-5.26-2.473-11.477-1.683-15.952 2.026l-181 150c-3.439 2.849-5.429 7.083-5.429 11.549s1.99 8.7 5.429 11.55l181 150c4.496 3.726 10.715 4.487 15.952 2.026 5.261-2.473 8.619-7.763 8.619-13.576v-300c0-5.813-3.358-11.103-8.619-13.575zm-21.381 281.662-142.492-118.087 142.492-118.087zm-226-374.087c-8.284 0-15 6.716-15 15v31c0 8.284 6.716 15 15 15s15-6.716 15-15v-31c0-8.284-6.716-15-15-15zm0 91c-8.284 0-15 6.716-15 15v30c0 8.284 6.716 15 15 15s15-6.716 15-15v-30c0-8.284-6.716-15-15-15zm0 90c-8.284 0-15 6.716-15 15v30c0 8.284 6.716 15 15 15s15-6.716 15-15v-30c0-8.284-6.716-15-15-15z" fill="url(#SVGID_1_)"/></g></g></g></svg>