<svg id="Capa_1" enable-background="new 0 0 512 512" height="512" viewBox="0 0 512 512" width="512" xmlns="http://www.w3.org/2000/svg" xmlns:xlink="http://www.w3.org/1999/xlink"><linearGradient id="SVGID_1_" gradientUnits="userSpaceOnUse" x1="256" x2="256" y1="512" y2="0"><stop offset="0" stop-color="#00b59c"/><stop offset="1" stop-color="#9cffac"/></linearGradient><g><g><g><path d="m286 241c-8.284 0-15 6.716-15 15s6.716 15 15 15h30c8.284 0 15-6.716 15-15s-6.716-15-15-15zm-240 0h-31c-8.284 0-15 6.716-15 15s6.716 15 15 15h31c8.284 0 15-6.716 15-15s-6.716-15-15-15zm198.45-35.429c2.851 3.439 7.084 5.429 11.55 5.429s8.699-1.99 11.55-5.429l150-181c3.709-4.476 4.498-10.691 2.025-15.952s-7.762-8.619-13.575-8.619h-300c-5.813 0-11.103 3.358-13.575 8.619s-1.684 11.477 2.025 15.952zm129.638-175.571-118.088 142.492-118.088-142.492zm-178.088 211c-8.284 0-15 6.716-15 15s6.716 15 15 15h30c8.284 0 15-6.716 15-15s-6.716-15-15-15zm210 0h-30c-8.284 0-15 6.716-15 15s6.716 15 15 15h30c8.284 0 15-6.716 15-15s-6.716-15-15-15zm91 0h-31c-8.284 0-15 6.716-15 15s6.716 15 15 15h31c8.284 0 15-6.716 15-15s-6.716-15-15-15zm-229.45 65.429c-2.851-3.439-7.084-5.429-11.55-5.429s-8.699 1.99-11.55 5.429l-150 181c-3.709 4.476-4.498 10.691-2.025 15.952s7.763 8.619 13.575 8.619h300c5.813 0 11.103-3.358 13.575-8.619s1.684-11.477-2.025-15.952zm-129.638 175.571 118.088-142.492 118.088 142.492zm-31.912-211h30c8.284 0 15-6.716 15-15s-6.716-15-15-15h-30c-8.284 0-15 6.716-15 15s6.716 15 15 15z" fill="url(#SVGID_1_)"/></g></g></g></svg>