<svg id="Capa_1" enable-background="new 0 0 512 512" height="512" viewBox="0 0 512 512" width="512" xmlns="http://www.w3.org/2000/svg" xmlns:xlink="http://www.w3.org/1999/xlink"><linearGradient id="SVGID_1_" gradientUnits="userSpaceOnUse" x1="256" x2="256" y1="481" y2="31"><stop offset="0" stop-color="#fd5900"/><stop offset="1" stop-color="#ffde00"/></linearGradient><g><g><g><path d="m497 211h-22.013c-9.833-36.293-31.286-69.017-62.581-95.235-31.129-26.078-69.419-43.525-111.406-50.872v-18.893c0-8.284-6.716-15-15-15h-60c-8.284 0-15 6.716-15 15v18.893c-41.987 7.347-80.277 24.794-111.406 50.873-31.295 26.217-52.748 58.941-62.581 95.234h-22.013c-8.284 0-15 6.716-15 15v60c0 8.284 6.716 15 15 15h22.013c9.833 36.293 31.286 69.017 62.581 95.235 31.129 26.078 69.419 43.525 111.406 50.873v18.892c0 8.284 6.716 15 15 15h60c8.284 0 15-6.716 15-15v-18.892c41.987-7.347 80.277-24.794 111.406-50.873 31.296-26.218 52.748-58.942 62.581-95.235h22.013c8.284 0 15-6.716 15-15v-60c0-8.284-6.716-15-15-15zm-256-150h30v30h-30zm-180 210c-9.262 0-20.674 0-31 0v-30h31zm210 180h-30v-30h30zm165-150h7.61c-19.219 56.875-74.46 101.782-142.61 115.554v-10.554c0-8.284-6.716-15-15-15h-60c-8.284 0-15 6.716-15 15v10.554c-68.15-13.772-123.391-58.679-142.61-115.554h7.61c8.284 0 15-6.716 15-15v-60c0-8.284-6.716-15-15-15h-7.61c19.219-56.875 74.46-101.782 142.61-115.554v10.554c0 8.284 6.716 15 15 15h60c8.284 0 15-6.716 15-15v-10.554c68.15 13.772 123.391 58.679 142.61 115.554h-7.61c-8.284 0-15 6.716-15 15v60c0 8.284 6.716 15 15 15zm46-30c-7.599 0-25.899 0-31 0v-30h31z" fill="url(#SVGID_1_)"/></g></g></g></svg>