<svg id="Capa_1" enable-background="new 0 0 512 512" height="512" viewBox="0 0 512 512" width="512" xmlns="http://www.w3.org/2000/svg" xmlns:xlink="http://www.w3.org/1999/xlink"><linearGradient id="SVGID_1_" gradientUnits="userSpaceOnUse" x1="256" x2="256" y1="481" y2="31"><stop offset="0" stop-color="#5558ff"/><stop offset="1" stop-color="#00c0ff"/></linearGradient><g><g><g><path d="m497 121c8.284 0 15-6.716 15-15v-60c0-8.284-6.716-15-15-15h-60c-8.284 0-15 6.716-15 15v15h-332v-15c0-8.284-6.716-15-15-15h-60c-8.284 0-15 6.716-15 15v60c0 8.284 6.716 15 15 15h15v270h-15c-8.284 0-15 6.716-15 15v60c0 8.284 6.716 15 15 15h60c8.284 0 15-6.716 15-15v-15h332v15c0 8.284 6.716 15 15 15h60c8.284 0 15-6.716 15-15v-60c0-8.284-6.716-15-15-15h-15v-270zm-467-60h30v30h-30zm30 390h-30v-30h30zm362-45v15h-332v-15c0-8.284-6.716-15-15-15h-15v-270h15c8.284 0 15-6.716 15-15v-15h332v15c0 8.284 6.716 15 15 15h15v270h-15c-8.284 0-15 6.716-15 15zm60 45h-30v-30h30zm-30-360v-30h30v30z" fill="url(#SVGID_1_)"/></g></g></g></svg>