<svg id="Capa_1" enable-background="new 0 0 512 512" height="512" viewBox="0 0 512 512" width="512" xmlns="http://www.w3.org/2000/svg" xmlns:xlink="http://www.w3.org/1999/xlink"><linearGradient id="SVGID_1_" gradientUnits="userSpaceOnUse" x1="256" x2="256" y1="481" y2="31"><stop offset="0" stop-color="#00b59c"/><stop offset="1" stop-color="#9cffac"/></linearGradient><g><g><g><path d="m497 211h-15v-75c0-41.355-33.645-75-75-75h-106v-15c0-8.284-6.716-15-15-15h-60c-8.284 0-15 6.716-15 15v15h-106c-41.355 0-75 33.645-75 75v75h-15c-8.284 0-15 6.716-15 15v60c0 8.284 6.716 15 15 15h15v75c0 41.355 33.645 75 75 75h106v15c0 8.284 6.716 15 15 15h60c8.284 0 15-6.716 15-15v-15h106c41.355 0 75-33.645 75-75v-75h15c8.284 0 15-6.716 15-15v-60c0-8.284-6.716-15-15-15zm-256-150h30v30h-30zm-211 210v-30h30v30zm241 180h-30v-30h30zm181-75c0 24.813-20.187 45-45 45h-106v-15c0-8.284-6.716-15-15-15h-60c-8.284 0-15 6.716-15 15v15h-106c-24.813 0-45-20.187-45-45v-75h15c8.284 0 15-6.716 15-15v-60c0-8.284-6.716-15-15-15h-15v-75c0-24.813 20.187-45 45-45h106v15c0 8.284 6.716 15 15 15h60c8.284 0 15-6.716 15-15v-15h106c24.813 0 45 20.187 45 45v75h-15c-8.284 0-15 6.716-15 15v60c0 8.284 6.716 15 15 15h15zm30-105h-30v-30h30z" fill="url(#SVGID_1_)"/></g></g></g></svg>