<svg id="Capa_1" enable-background="new 0 0 511.986 511.986" height="512" viewBox="0 0 511.986 511.986" width="512" xmlns="http://www.w3.org/2000/svg" xmlns:xlink="http://www.w3.org/1999/xlink"><linearGradient id="SVGID_1_" gradientUnits="userSpaceOnUse" x1="255.993" x2="255.993" y1="420.993" y2="90.993"><stop offset="0" stop-color="#a93aff"/><stop offset="1" stop-color="#ff81ff"/></linearGradient><g><g><g><path d="m506.318 244.249-147.408-117.138c-29.11-23.291-65.663-36.118-102.924-36.118s-73.813 12.827-102.884 36.086l-147.448 117.17c-3.627 2.892-5.868 7.546-5.637 12.442.203 4.47 2.383 8.455 5.637 11.045l147.407 117.137s.001 0 .001.001c.002.002.04.032.04.032.002.002.005.003.007.005 29.103 23.267 65.636 36.081 102.876 36.081 37.261 0 73.813-12.827 102.884-36.086l147.448-117.17c3.581-2.846 5.668-7.17 5.668-11.744s-2.086-8.897-5.667-11.743zm-166.152 117.201c-24.156 19.327-53.266 29.542-84.181 29.542-30.916 0-60.025-10.216-84.182-29.543-.006-.004-.012-.008-.017-.012-.007-.006-.013-.012-.021-.018l-132.669-105.426 132.709-105.458c24.156-19.327 53.266-29.542 84.181-29.542 30.916 0 60.025 10.216 84.221 29.574l132.669 105.426zm-84.18-210.457c-57.897 0-105 47.103-105 105 0 57.722 46.926 105 105 105 57.897 0 105-47.103 105-105 0-57.723-46.928-105-105-105zm-75 105c0-41.355 33.645-75 75-75 15.264 0 29.47 4.594 41.33 12.458l-103.873 103.871c-7.863-11.859-12.457-26.065-12.457-41.329zm75 75c-15.264 0-29.47-4.594-41.33-12.458l103.872-103.872c7.863 11.859 12.457 26.065 12.457 41.329.001 41.356-33.644 75.001-74.999 75.001z" fill="url(#SVGID_1_)"/></g></g></g></svg>