<svg id="Capa_1" enable-background="new 0 0 511.99 511.99" height="512" viewBox="0 0 511.99 511.99" width="512" xmlns="http://www.w3.org/2000/svg" xmlns:xlink="http://www.w3.org/1999/xlink"><linearGradient id="SVGID_1_" gradientUnits="userSpaceOnUse" x1="255.995" x2="255.995" y1="420.995" y2="90.995"><stop offset="0" stop-color="#fd3a84"/><stop offset="1" stop-color="#ffa68d"/></linearGradient><g><g><g><path d="m255.99 150.995c-57.897 0-105 47.103-105 105s47.103 105 105 105 105-47.103 105-105-47.102-105-105-105zm0 180c-41.355 0-75-33.645-75-75s33.645-75 75-75 75 33.645 75 75-33.644 75-75 75zm250.332-86.744-147.408-117.138c-29.11-23.291-65.663-36.118-102.924-36.118s-73.813 12.827-102.884 36.086l-147.448 117.17c-3.466 2.755-5.653 7.059-5.658 11.744.005 4.649 2.161 8.959 5.658 11.744l147.407 117.137s.001 0 .001.001c.002.002.04.032.04.032.002.002.005.003.007.005 29.103 23.267 65.636 36.081 102.876 36.081 37.261 0 73.813-12.827 102.884-36.086l147.448-117.17c3.581-2.846 5.668-7.17 5.668-11.744s-2.086-8.898-5.667-11.744zm-166.151 117.202c-24.156 19.327-53.266 29.542-84.181 29.542-30.916 0-60.025-10.216-84.182-29.543-.006-.004-.012-.008-.017-.012-.007-.006-.013-.012-.021-.018l-132.669-105.427 132.709-105.457c24.156-19.327 53.266-29.542 84.181-29.542 30.916 0 60.025 10.216 84.221 29.574l132.668 105.425zm-84.181-150.458c-24.813 0-45 20.187-45 45s20.187 45 45 45 45-20.187 45-45-20.186-45-45-45zm0 60c-8.271 0-15-6.729-15-15s6.729-15 15-15 15 6.729 15 15-6.728 15-15 15z" fill="url(#SVGID_1_)"/></g></g></g></svg>