<svg id="Capa_1" enable-background="new 0 0 512 512" height="512" viewBox="0 0 512 512" width="512" xmlns="http://www.w3.org/2000/svg" xmlns:xlink="http://www.w3.org/1999/xlink"><linearGradient id="SVGID_1_" gradientUnits="userSpaceOnUse" x1="256" x2="256" y1="512" y2="0"><stop offset="0" stop-color="#00b59c"/><stop offset="1" stop-color="#9cffac"/></linearGradient><g><g><g><path d="m347 30h60c8.284 0 15-6.716 15-15s-6.716-15-15-15h-60c-8.284 0-15 6.716-15 15s6.716 15 15 15zm-332 392c8.284 0 15-6.716 15-15v-60c0-8.284-6.716-15-15-15s-15 6.716-15 15v60c0 8.284 6.716 15 15 15zm210-392h62c8.284 0 15-6.716 15-15s-6.716-15-15-15h-62c-8.284 0-15 6.716-15 15s6.716 15 15 15zm-210 272c8.284 0 15-6.716 15-15v-62c0-8.284-6.716-15-15-15s-15 6.716-15 15v62c0 8.284 6.716 15 15 15zm30 180h-15v-15c0-8.284-6.716-15-15-15s-15 6.716-15 15v30c0 8.284 6.716 15 15 15h30c8.284 0 15-6.716 15-15s-6.716-15-15-15zm120 0h-60c-8.284 0-15 6.716-15 15s6.716 15 15 15h60c8.284 0 15-6.716 15-15s-6.716-15-15-15zm-150-422c8.284 0 15-6.716 15-15v-15h15c8.284 0 15-6.716 15-15s-6.716-15-15-15h-30c-8.284 0-15 6.716-15 15v30c0 8.284 6.716 15 15 15zm0 120c8.284 0 15-6.716 15-15v-60c0-8.284-6.716-15-15-15s-15 6.716-15 15v60c0 8.284 6.716 15 15 15zm90-150h60c8.284 0 15-6.716 15-15s-6.716-15-15-15h-60c-8.284 0-15 6.716-15 15s6.716 15 15 15zm392 60c-8.284 0-15 6.716-15 15v60c0 8.284 6.716 15 15 15s15-6.716 15-15v-60c0-8.284-6.716-15-15-15zm0 242c-8.284 0-15 6.716-15 15v60c0 8.284 6.716 15 15 15s15-6.716 15-15v-60c0-8.284-6.716-15-15-15zm0-122c-8.284 0-15 6.716-15 15v62c0 8.284 6.716 15 15 15s15-6.716 15-15v-62c0-8.284-6.716-15-15-15zm0-210h-30c-8.284 0-15 6.716-15 15s6.716 15 15 15h15v15c0 8.284 6.716 15 15 15s15-6.716 15-15v-30c0-8.284-6.716-15-15-15zm-45 75c0-8.284-6.716-15-15-15h-362c-8.284 0-15 6.716-15 15v90c0 8.284 6.716 15 15 15s15-6.716 15-15v-15h120v272h-15c-8.284 0-15 6.716-15 15s6.716 15 15 15h122c8.284 0 15-6.716 15-15s-6.716-15-15-15h-15v-272h120v15c0 8.284 6.716 15 15 15s15-6.716 15-15zm-30 45h-135c-8.284 0-15 6.716-15 15v287h-32v-287c0-8.284-6.716-15-15-15h-135v-30h332zm75 332c-8.284 0-15 6.716-15 15v15h-15c-8.284 0-15 6.716-15 15s6.716 15 15 15h30c8.284 0 15-6.716 15-15v-30c0-8.284-6.716-15-15-15zm-90 30h-60c-8.284 0-15 6.716-15 15s6.716 15 15 15h60c8.284 0 15-6.716 15-15s-6.716-15-15-15zm-120 0h-62c-8.284 0-15 6.716-15 15s6.716 15 15 15h62c8.284 0 15-6.716 15-15s-6.716-15-15-15z" fill="url(#SVGID_1_)"/></g></g></g></svg>