<svg id="Capa_1" enable-background="new 0 0 512 512" height="512" viewBox="0 0 512 512" width="512" xmlns="http://www.w3.org/2000/svg" xmlns:xlink="http://www.w3.org/1999/xlink"><linearGradient id="SVGID_1_" gradientUnits="userSpaceOnUse" x1="256" x2="256" y1="512" y2="0"><stop offset="0" stop-color="#fd3a84"/><stop offset="1" stop-color="#ffa68d"/></linearGradient><g><g><g><path d="m466 195h-405v-30h225c8.284 0 15-6.716 15-15v-90c0-8.284-6.716-15-15-15h-225v-30c0-8.284-6.716-15-15-15s-15 6.716-15 15v482c0 8.284 6.716 15 15 15s15-6.716 15-15v-32h285c8.284 0 15-6.716 15-15v-90c0-8.284-6.716-15-15-15h-285v-30h405c8.284 0 15-6.716 15-15v-90c0-8.284-6.716-15-15-15zm-405-120h210v60h-210zm270 300v60h-270v-60zm120-90h-390v-60h390z" fill="url(#SVGID_1_)"/></g></g></g></svg>