<svg id="Capa_1" enable-background="new 0 0 512 512" height="512" viewBox="0 0 512 512" width="512" xmlns="http://www.w3.org/2000/svg" xmlns:xlink="http://www.w3.org/1999/xlink"><linearGradient id="SVGID_1_" gradientUnits="userSpaceOnUse" x1="256" x2="256" y1="512" y2="0"><stop offset="0" stop-color="#5558ff"/><stop offset="1" stop-color="#00c0ff"/></linearGradient><g><g><g><path d="m466 0c-8.284 0-15 6.716-15 15v30h-225c-8.284 0-15 6.716-15 15v90c0 8.284 6.716 15 15 15h225v30h-405c-8.284 0-15 6.716-15 15v90c0 8.284 6.716 15 15 15h405v30h-285c-8.284 0-15 6.716-15 15v90c0 8.284 6.716 15 15 15h285v32c0 8.284 6.716 15 15 15s15-6.716 15-15v-482c0-8.284-6.716-15-15-15zm-15 435h-270v-60h270zm0-150h-390v-60h390zm0-150h-210v-60h210z" fill="url(#SVGID_1_)"/></g></g></g></svg>