<svg id="Capa_1" enable-background="new 0 0 512 512" height="512" viewBox="0 0 512 512" width="512" xmlns="http://www.w3.org/2000/svg" xmlns:xlink="http://www.w3.org/1999/xlink"><linearGradient id="SVGID_1_" gradientUnits="userSpaceOnUse" x1="256" x2="256" y1="512" y2="0"><stop offset="0" stop-color="#fd5900"/><stop offset="1" stop-color="#ffde00"/></linearGradient><g><g><g><path d="m466 195h-195v-30h75c8.284 0 15-6.716 15-15v-90c0-8.284-6.716-15-15-15h-75v-30c0-8.284-6.716-15-15-15s-15 6.716-15 15v30h-75c-8.284 0-15 6.716-15 15v90c0 8.284 6.716 15 15 15h75v30h-195c-8.284 0-15 6.716-15 15v90c0 8.284 6.716 15 15 15h195v30h-135c-8.284 0-15 6.716-15 15v90c0 8.284 6.716 15 15 15h135v32c0 8.284 6.716 15 15 15s15-6.716 15-15v-32h135c8.284 0 15-6.716 15-15v-90c0-8.284-6.716-15-15-15h-135v-30h195c8.284 0 15-6.716 15-15v-90c0-8.284-6.716-15-15-15zm-195-120h60v60h-60zm-30 360h-120v-60h120zm0-150h-180v-60h180zm0-150h-60v-60h60zm150 240v60h-120v-60zm60-90h-180v-60h180z" fill="url(#SVGID_1_)"/></g></g></g></svg>