<svg id="Capa_1" enable-background="new 0 0 512 512" height="512" viewBox="0 0 512 512" width="512" xmlns="http://www.w3.org/2000/svg" xmlns:xlink="http://www.w3.org/1999/xlink"><linearGradient id="SVGID_1_" gradientUnits="userSpaceOnUse" x1="256" x2="256" y1="512" y2="0"><stop offset="0" stop-color="#5558ff"/><stop offset="1" stop-color="#00c0ff"/></linearGradient><g><g><g><path d="m106 122h-60c-8.284 0-15 6.716-15 15s6.716 15 15 15h60c8.284 0 15-6.716 15-15s-6.716-15-15-15zm60-30c8.284 0 15-6.716 15-15v-62c0-8.284-6.716-15-15-15s-15 6.716-15 15v62c0 8.284 6.716 15 15 15zm310.604 154.391c-.101-.102-120.119-120.118-120.01-120.009-2.792-2.784-6.667-4.382-10.594-4.382h-180c-8.284 0-15 6.716-15 15v360c0 8.284 6.716 15 15 15h300c8.284 0 15-6.716 15-15v-240c0-4.227-1.571-7.62-4.396-10.609zm-115.604-73.178 68.787 68.787h-68.787zm90 308.787h-270v-330h150v105c0 8.284 6.716 15 15 15h105z" fill="url(#SVGID_1_)"/></g></g></g></svg>