<svg id="Capa_1" enable-background="new 0 0 512.003 512.003" height="512" viewBox="0 0 512.003 512.003" width="512" xmlns="http://www.w3.org/2000/svg" xmlns:xlink="http://www.w3.org/1999/xlink"><linearGradient id="SVGID_1_" gradientUnits="userSpaceOnUse" x1="256.002" x2="256.002" y1="451.002" y2="61.002"><stop offset="0" stop-color="#fd5900"/><stop offset="1" stop-color="#ffde00"/></linearGradient><g><g><g><path d="m503.708 362.585c-7.409-3.704-16.419-.701-20.125 6.708l-1.583 3.168v-296.459c0-8.284-6.716-15-15-15s-15 6.716-15 15v296.459l-1.583-3.167c-3.705-7.41-12.715-10.414-20.125-6.708-7.41 3.705-10.413 12.715-6.708 20.125l30 60c2.505 5.01 7.7 8.292 13.417 8.292 5.76 0 10.931-3.322 13.417-8.292l30-60c3.703-7.411.7-16.421-6.71-20.126zm-126.708-301.583h-362c-8.284 0-15 6.716-15 15v90c0 8.284 6.716 15 15 15s15-6.716 15-15v-15h120v270h-15c-8.284 0-15 6.716-15 15s6.716 15 15 15h122c8.284 0 15-6.716 15-15s-6.716-15-15-15h-15v-270h120v15c0 8.284 6.716 15 15 15s15-6.716 15-15v-90c0-8.285-6.716-15-15-15zm-15 60h-135c-8.284 0-15 6.716-15 15v285h-32v-285c0-8.284-6.716-15-15-15h-135v-30h332z" fill="url(#SVGID_1_)"/></g></g></g></svg>