<svg id="Capa_1" enable-background="new 0 0 512 512" height="512" viewBox="0 0 512 512" width="512" xmlns="http://www.w3.org/2000/svg" xmlns:xlink="http://www.w3.org/1999/xlink"><linearGradient id="SVGID_1_" gradientUnits="userSpaceOnUse" x1="256" x2="256" y1="512" y2="0"><stop offset="0" stop-color="#a93aff"/><stop offset="1" stop-color="#ff81ff"/></linearGradient><g><g><g><path d="m75 422c-8.284 0-15 6.716-15 15s6.716 15 15 15 15-6.716 15-15-6.716-15-15-15zm422-60h-347v-347c0-8.284-6.716-15-15-15h-120c-8.284 0-15 6.716-15 15v482c0 8.284 6.716 15 15 15h482c8.284 0 15-6.716 15-15v-120c0-8.284-6.716-15-15-15zm-15 120h-32v-15c0-8.284-6.716-15-15-15s-15 6.716-15 15v15h-30v-45c0-8.284-6.716-15-15-15s-15 6.716-15 15v45h-30v-15c0-8.284-6.716-15-15-15s-15 6.716-15 15v15h-30v-45c0-8.284-6.716-15-15-15s-15 6.716-15 15v45h-30v-15c0-8.284-6.716-15-15-15s-15 6.716-15 15v15h-30v-45c0-8.284-6.716-15-15-15s-15 6.716-15 15v45h-90v-90h45c8.284 0 15-6.716 15-15s-6.716-15-15-15h-45v-30h15c8.284 0 15-6.716 15-15s-6.716-15-15-15h-15v-30h45c8.284 0 15-6.716 15-15s-6.716-15-15-15h-45v-30h15c8.284 0 15-6.716 15-15s-6.716-15-15-15h-15v-30h45c8.284 0 15-6.716 15-15s-6.716-15-15-15h-45v-30h15c8.284 0 15-6.716 15-15s-6.716-15-15-15h-15v-32h90v347c0 8.284 6.716 15 15 15h347z" fill="url(#SVGID_1_)"/></g></g></g></svg>