<svg id="Capa_1" enable-background="new 0 0 512 512" height="512" viewBox="0 0 512 512" width="512" xmlns="http://www.w3.org/2000/svg" xmlns:xlink="http://www.w3.org/1999/xlink"><linearGradient id="SVGID_1_" gradientUnits="userSpaceOnUse" x1="256" x2="256" y1="436" y2="76"><stop offset="0" stop-color="#fd3a84"/><stop offset="1" stop-color="#ffa68d"/></linearGradient><g><g><g><path d="m15 106h482c8.284 0 15-6.716 15-15s-6.716-15-15-15h-482c-8.284 0-15 6.716-15 15s6.716 15 15 15zm482 210h-482c-8.284 0-15 6.716-15 15v90c0 8.284 6.716 15 15 15h482c8.284 0 15-6.716 15-15v-90c0-8.284-6.716-15-15-15zm-15 90h-452v-60h452zm15-240h-482c-8.284 0-15 6.716-15 15v60c0 8.284 6.716 15 15 15h482c8.284 0 15-6.716 15-15v-60c0-8.284-6.716-15-15-15zm-15 60h-452v-30h452z" fill="url(#SVGID_1_)"/></g></g></g></svg>