<svg id="Capa_1" enable-background="new 0 0 512 512" height="512" viewBox="0 0 512 512" width="512" xmlns="http://www.w3.org/2000/svg" xmlns:xlink="http://www.w3.org/1999/xlink"><linearGradient id="SVGID_1_" gradientUnits="userSpaceOnUse" x1="256" x2="256" y1="512" y2="0"><stop offset="0" stop-color="#00b59c"/><stop offset="1" stop-color="#9cffac"/></linearGradient><g><g><g><path d="m497 181c8.284 0 15-6.716 15-15v-60c0-8.284-6.716-15-15-15h-60c-8.284 0-15 6.716-15 15v4.988l-332-71.667v-24.321c0-8.284-6.716-15-15-15h-60c-8.284 0-15 6.716-15 15v60c0 8.284 6.716 15 15 15h15v332h-15c-8.284 0-15 6.716-15 15v60c0 8.284 6.716 15 15 15h60c8.284 0 15-6.716 15-15v-24.321l332-71.667v4.988c0 8.284 6.716 15 15 15h60c8.284 0 15-6.716 15-15v-60c0-8.284-6.716-15-15-15h-15v-150zm-467-151h30v30h-30zm30 452h-30v-30h30zm362-136v24.321l-120 25.904v-50.225c0-8.284-6.716-15-15-15s-15 6.716-15 15v56.701l-182 39.287v-4.988c0-8.284-6.716-15-15-15h-15v-151h135c8.284 0 15-6.716 15-15s-6.716-15-15-15h-135v-151h15c8.284 0 15-6.716 15-15v-4.988l182 39.287v56.701c0 8.284 6.716 15 15 15s15-6.716 15-15v-50.225l120 25.904v24.321c0 8.284 6.716 15 15 15h15v60h-75c-8.284 0-15 6.716-15 15s6.716 15 15 15h75v60h-15c-8.284 0-15 6.716-15 15zm60 45h-30c0-8.382 0-24.882 0-30h30zm-30-240c0-5.3 0-21.673 0-30h30v30zm-135 90h-15v-15c0-8.284-6.716-15-15-15s-15 6.716-15 15v15h-15c-8.284 0-15 6.716-15 15s6.716 15 15 15h15v15c0 8.284 6.716 15 15 15s15-6.716 15-15v-15h15c8.284 0 15-6.716 15-15s-6.716-15-15-15z" fill="url(#SVGID_1_)"/></g></g></g></svg>