<svg id="Capa_1" enable-background="new 0 0 512 512" height="512" viewBox="0 0 512 512" width="512" xmlns="http://www.w3.org/2000/svg" xmlns:xlink="http://www.w3.org/1999/xlink"><linearGradient id="SVGID_1_" gradientUnits="userSpaceOnUse" x1="256" x2="256" y1="512" y2="0"><stop offset="0" stop-color="#fd3a84"/><stop offset="1" stop-color="#ffa68d"/></linearGradient><g><g><g><path d="m497 0h-332c-8.284 0-15 6.716-15 15v137h-135c-8.284 0-15 6.716-15 15v330c0 8.284 6.716 15 15 15h330c8.284 0 15-6.716 15-15v-135h137c8.284 0 15-6.716 15-15v-332c0-8.284-6.716-15-15-15zm-332 362h105v60h-180v-180h60v105c0 8.284 6.716 15 15 15zm165 120h-300v-300h120v30h-75c-8.284 0-15 6.716-15 15v210c0 8.284 6.716 15 15 15h210c8.284 0 15-6.716 15-15v-75h30zm152-150h-302v-302h302z" fill="url(#SVGID_1_)"/></g></g></g></svg>