<svg id="Capa_1" enable-background="new 0 0 512.007 512.007" height="512" viewBox="0 0 512.007 512.007" width="512" xmlns="http://www.w3.org/2000/svg" xmlns:xlink="http://www.w3.org/1999/xlink"><linearGradient id="SVGID_1_" gradientUnits="userSpaceOnUse" x1="256.003" x2="256.003" y1="497.161" y2="14.846"><stop offset="0" stop-color="#a93aff"/><stop offset="1" stop-color="#ff81ff"/></linearGradient><g><g><g><path d="m510.409 84.43c-3.717-7.403-12.731-10.392-20.136-6.675l-54.565 27.396-172.859-88.652c-4.298-2.204-9.393-2.204-13.69 0l-172.86 88.652-54.565-27.396c-7.406-3.718-16.419-.729-20.136 6.675s-.729 16.418 6.675 20.136l52.73 26.475v201.12c0 5.626 3.148 10.78 8.155 13.347l171.845 88.132v48.521c0 8.284 6.716 15 15 15s15-6.716 15-15v-48.521l171.845-88.132c5.006-2.567 8.155-7.721 8.155-13.347v-201.12l52.73-26.475c7.404-3.717 10.393-12.732 6.676-20.136zm-269.406 315.494-150-76.929v-176.892l150 75.311zm15-204.548-146.484-73.546 146.485-75.126 146.485 75.126zm165 127.62-150 76.929v-178.51l150-75.311z" fill="url(#SVGID_1_)"/></g></g></g></svg>