<svg id="Capa_1" enable-background="new 0 0 512 512" height="512" viewBox="0 0 512 512" width="512" xmlns="http://www.w3.org/2000/svg" xmlns:xlink="http://www.w3.org/1999/xlink"><linearGradient id="SVGID_1_" gradientUnits="userSpaceOnUse" x1="256" x2="256" y1="512" y2="0"><stop offset="0" stop-color="#5558ff"/><stop offset="1" stop-color="#00c0ff"/></linearGradient><g><g><g><path d="m176.649 357.62-24.879 74.637c-1.524 4.574-.758 9.603 2.062 13.514 2.818 3.911 7.347 6.229 12.168 6.229h60c4.821 0 9.35-2.318 12.169-6.229s3.586-8.94 2.062-13.514l-24.879-74.637c15.154-7.249 25.648-22.731 25.648-40.62 0-24.813-20.187-45-45-45s-45 20.187-45 45c0 17.889 10.494 33.371 25.649 40.62zm10.163 64.38 9.188-27.566 9.188 27.566zm9.188-120c8.271 0 15 6.729 15 15s-6.729 15-15 15-15-6.729-15-15 6.729-15 15-15zm181-302c-74.439 0-135 60.561-135 135v77h-227c-8.284 0-15 6.716-15 15v270c0 8.284 6.716 15 15 15h362c8.284 0 15-6.716 15-15v-270c0-8.284-6.716-15-15-15h-45v-77c0-24.813 20.187-45 45-45s45 20.187 45 45v92c0 8.284 6.716 15 15 15h60c8.284 0 15-6.716 15-15v-92c0-74.808-60.662-135-135-135zm-15 242v240h-332v-240zm120-30h-30v-77c0-41.355-33.645-75-75-75s-75 33.645-75 75v77h-30v-77c0-57.897 47.103-105 105-105 57.805 0 105 46.894 105 105z" fill="url(#SVGID_1_)"/></g></g></g></svg>