<svg id="Capa_1" enable-background="new 0 0 512 512" height="512" viewBox="0 0 512 512" width="512" xmlns="http://www.w3.org/2000/svg" xmlns:xlink="http://www.w3.org/1999/xlink"><linearGradient id="SVGID_1_" gradientUnits="userSpaceOnUse" x1="36.213" x2="475.787" y1="475.787" y2="36.214"><stop offset="0" stop-color="#fd5900"/><stop offset="1" stop-color="#ffde00"/></linearGradient><g><g><g><path d="m497 270c-24.813 0-45-20.187-45-45 0-8.284-6.716-15-15-15s-15 6.716-15 15c0 24.813-20.187 45-45 45-8.284 0-15 6.716-15 15s6.716 15 15 15c24.813 0 45 20.187 45 45 0 8.284 6.716 15 15 15s15-6.716 15-15c0-24.813 20.187-45 45-45 8.284 0 15-6.716 15-15s-6.716-15-15-15zm-60 30.052c-4.281-5.7-9.353-10.771-15.052-15.052 5.7-4.281 10.772-9.353 15.052-15.052 4.281 5.7 9.353 10.771 15.052 15.052-5.699 4.281-10.771 9.353-15.052 15.052zm-270-210.052c24.813 0 45 20.187 45 45 0 8.284 6.716 15 15 15s15-6.716 15-15c0-24.813 20.187-45 45-45 8.284 0 15-6.716 15-15s-6.716-15-15-15c-24.813 0-45-20.187-45-45 0-8.284-6.716-15-15-15s-15 6.716-15 15c0 24.813-20.187 45-45 45-8.284 0-15 6.716-15 15s6.716 15 15 15zm60-30.052c4.281 5.7 9.353 10.771 15.052 15.052-5.7 4.281-10.772 9.353-15.052 15.052-4.281-5.7-9.353-10.771-15.052-15.052 5.699-4.281 10.771-9.352 15.052-15.052zm280.607 8.085-63.64-63.64c-5.857-5.858-15.355-5.858-21.213 0l-418.36 418.361c-5.858 5.858-5.858 15.355 0 21.213l63.64 63.64c2.928 2.929 6.767 4.393 10.606 4.393s7.678-1.464 10.606-4.394l418.36-418.36c5.858-5.858 5.858-15.355.001-21.213zm-428.967 407.754-42.426-42.426 269.868-269.868 42.426 42.427zm291.081-291.081-42.426-42.427 106.065-106.065 42.426 42.426z" fill="url(#SVGID_1_)"/></g></g></g></svg>