<svg id="Capa_1" enable-background="new 0 0 512.13 512.13" height="512" viewBox="0 0 512.13 512.13" width="512" xmlns="http://www.w3.org/2000/svg" xmlns:xlink="http://www.w3.org/1999/xlink"><linearGradient id="SVGID_1_" gradientUnits="userSpaceOnUse" x1="256.065" x2="256.065" y1="512.13" y2="0"><stop offset="0" stop-color="#fd3a84"/><stop offset="1" stop-color="#ffa68d"/></linearGradient><g><g><g><path d="m507.831 468.414c-6.21-43.292-14.715-102.581-39.975-127.84-19.677-19.677-46.272-28.314-72.028-25.924-24.998-27.283-68.717-72.394-97.678-101.355-63.102-63.103-126.468-119.785-178.427-159.606-25.769-19.749-47.32-34.236-64.055-43.061-16.234-8.56-36.492-16.764-49.146-4.11s-4.451 32.912 4.11 49.146c8.825 16.736 23.312 38.287 43.061 64.056 39.821 51.958 96.502 115.325 159.605 178.427 28.961 28.961 74.072 72.68 101.355 97.678-2.39 25.755 6.248 52.351 25.925 72.028 23.386 23.387 74.564 32.377 129.423 40.235 9.77 1.399 18.211 2.609 24.243 3.758.605.115 2.37.325 2.902.278 8.202-.008 14.982-6.665 14.982-15.017-.004-2.805-.145.256-4.297-28.693zm-421.562-355.676c-35.304-44.75-48.451-68.317-53.34-79.813 11.496 4.89 35.063 18.036 79.813 53.34 45.718 36.067 99.858 84.625 153.557 137.668l-42.361 42.361c-53.044-53.698-101.602-107.838-137.669-153.556zm237.677 250.808c-23.392-21.856-54.551-52.021-78.8-76.034l42.371-42.37c24.012 24.249 54.178 55.408 76.034 78.8-8.284 4.189-16.059 9.719-22.972 16.631s-12.444 14.688-16.633 22.973zm112.09 51.274c-5.857-5.858-15.355-5.858-21.213 0s-5.858 15.355 0 21.213l39.41 39.41c-34.347-5.305-77.335-13.695-92.443-28.803-23.394-23.394-23.394-61.459 0-84.853 23.395-23.394 61.458-23.394 84.853 0 15.24 15.24 23.554 58.419 28.775 92.415z" fill="url(#SVGID_1_)"/></g></g></g></svg>