<svg id="Capa_1" enable-background="new 0 0 511.98 511.98" height="512" viewBox="0 0 511.98 511.98" width="512" xmlns="http://www.w3.org/2000/svg" xmlns:xlink="http://www.w3.org/1999/xlink"><linearGradient id="SVGID_1_" gradientUnits="userSpaceOnUse" x1="255.99" x2="255.99" y1="511.979" y2="0"><stop offset="0" stop-color="#5558ff"/><stop offset="1" stop-color="#00c0ff"/></linearGradient><g><g><g><path d="m511.209 492.235-37.947-113.841c-3.662-10.988-9.928-21.125-18.119-29.316l-335.918-335.919c-17.546-17.545-46.094-17.544-63.639 0l-42.427 42.427c-17.545 17.545-17.545 46.093 0 63.639l335.918 335.919c8.19 8.19 18.328 14.455 29.316 18.118l113.842 37.948c5.355 1.786 11.307.419 15.35-3.624 4.018-4.018 5.421-9.96 3.624-15.351zm-476.837-394.223c-5.849-5.849-5.849-15.365 0-21.213l42.427-42.427c2.924-2.924 6.766-4.386 10.606-4.386 3.841 0 7.683 1.462 10.607 4.386l31.82 31.82-63.64 63.64zm53.033 53.033 63.64-63.64 21.213 21.213-63.64 63.64zm261.081 261.081-218.655-218.655 63.64-63.64 218.655 218.655zm39.394 32.676c-6.593-2.198-12.676-5.958-17.59-10.871l-.591-.591 63.64-63.64.591.591c4.915 4.915 8.674 10.998 10.871 17.59l28.461 85.381z" fill="url(#SVGID_1_)"/></g></g></g></svg>