<svg id="Capa_1" enable-background="new 0 0 512.014 512.014" height="512" viewBox="0 0 512.014 512.014" width="512" xmlns="http://www.w3.org/2000/svg" xmlns:xlink="http://www.w3.org/1999/xlink"><linearGradient id="SVGID_1_" gradientUnits="userSpaceOnUse" x1="256.007" x2="256.007" y1="512.014" y2="0"><stop offset="0" stop-color="#a93aff"/><stop offset="1" stop-color="#ff81ff"/></linearGradient><g><g><g><path d="m507.62 486.407-42.8-42.8c-8.119-49.204-31.826-95.465-67.108-130.748l-146.78-146.78 53.033-53.033c2.813-2.813 4.394-6.628 4.394-10.606 0-3.979-1.58-7.794-4.394-10.607l-21.214-21.212c-17.584-17.585-46.052-17.589-63.639 0l-31.82 31.82-84.854-84.853c-23.447-23.448-61.401-23.451-84.852 0-23.448 23.447-23.452 61.402 0 84.853l84.852 84.853-31.82 31.82c-17.587 17.585-17.588 46.05 0 63.64l21.214 21.213c2.929 2.929 6.768 4.393 10.606 4.393s7.678-1.464 10.606-4.394l53.033-53.033 146.779 146.779c35.281 35.282 81.542 58.989 130.747 67.108l42.801 42.801c5.857 5.858 15.355 5.858 21.213 0 5.861-5.858 5.861-15.356.003-21.214zm-468.819-405.181c-11.725-11.725-11.725-30.7 0-42.426 11.724-11.724 30.701-11.725 42.426 0l84.854 84.853-42.427 42.427zm63.639 190.92-10.607-10.607c-5.863-5.863-5.863-15.349 0-21.213l148.494-148.493c5.859-5.86 15.349-5.862 21.212.001l10.606 10.606zm125.147-2.132-40.294-40.294 42.427-42.427 82.721 82.721zm106.485 106.484-76.485-76.485h84.854l34.058 34.058c26.836 26.837 46.021 60.936 55.245 97.671-36.736-9.222-70.836-28.408-97.672-55.244z" fill="url(#SVGID_1_)"/></g></g></g></svg>