<svg id="Capa_1" enable-background="new 0 0 512 512" height="512" viewBox="0 0 512 512" width="512" xmlns="http://www.w3.org/2000/svg" xmlns:xlink="http://www.w3.org/1999/xlink"><linearGradient id="SVGID_1_" gradientUnits="userSpaceOnUse" x1="256" x2="256" y1="512" y2="0"><stop offset="0" stop-color="#00b59c"/><stop offset="1" stop-color="#9cffac"/></linearGradient><g><g><g><path d="m506.386 3.299c-3.549-2.847-8.198-3.928-12.64-2.942l-270 60c-6.863 1.525-11.746 7.613-11.746 14.643s4.883 13.118 11.746 14.643l270 60c4.45.989 9.098-.101 12.64-2.942 3.549-2.848 5.614-7.151 5.614-11.701v-120c0-4.55-2.065-8.854-5.614-11.701zm-24.386 113.002-185.854-41.301 185.854-41.301zm-347 305.699c41.355 0 75-33.645 75-75s-33.645-75-75-75-75 33.645-75 75 33.645 75 75 75zm0-120c24.813 0 45 20.187 45 45s-20.187 45-45 45-45-20.187-45-45 20.187-45 45-45zm120-120h-16.076c-6.597-45.916-43.008-82.327-88.924-88.924v-16.076c0-8.284-6.716-15-15-15s-15 6.716-15 15v16.076c-45.916 6.597-82.327 43.008-88.924 88.924h-16.076c-8.284 0-15 6.716-15 15v300c0 8.284 6.716 15 15 15h240c8.284 0 15-6.716 15-15v-300c0-8.284-6.716-15-15-15zm-120-60c36.22 0 66.522 25.808 73.491 60h-146.982c6.969-34.192 37.271-60 73.491-60zm105 360h-210v-270h210z" fill="url(#SVGID_1_)"/></g></g></g></svg>