<svg id="Capa_1" enable-background="new 0 0 512 512" height="512" viewBox="0 0 512 512" width="512" xmlns="http://www.w3.org/2000/svg" xmlns:xlink="http://www.w3.org/1999/xlink"><linearGradient id="SVGID_1_" gradientUnits="userSpaceOnUse" x1="256" x2="256" y1="472.526" y2="39.474"><stop offset="0" stop-color="#a93aff"/><stop offset="1" stop-color="#ff81ff"/></linearGradient><g><g><g><path d="m407 179.126h-72.791l-105.257-105.258c-5.857-5.858-15.355-5.858-21.213 0l-53.033 53.033-83.034-83.033c-5.857-5.858-15.355-5.858-21.213 0s-5.858 15.355 0 21.213l83.033 83.033-129.099 129.099c-5.858 5.858-5.858 15.355 0 21.213l169.706 169.706c2.929 2.929 6.768 4.394 10.606 4.394s7.678-1.464 10.606-4.394l199.006-199.006h12.683c8.271 0 15 6.729 15 15v30c0 24.813 20.187 45 45 45s45-20.187 45-45v-30c0-57.897-47.103-105-105-105zm-222.295 257.186-148.492-148.492 118.492-118.492 44.251 44.251c-7.967 16.723-5.045 37.381 8.782 51.208 17.586 17.586 46.051 17.589 63.639 0 17.545-17.545 17.545-46.094 0-63.639-8.5-8.5-19.8-13.18-31.82-13.18-6.83 0-13.425 1.515-19.408 4.379l-44.232-44.231 42.427-42.427 148.493 148.491zm44.247-213.952c5.862-5.861 15.35-5.863 21.213 0 5.863 5.864 5.863 15.35 0 21.213-5.863 5.862-15.35 5.862-21.213 0-5.849-5.848-5.849-15.364 0-21.213zm253.048 91.766c0 8.271-6.729 15-15 15s-15-6.729-15-15v-30c0-24.813-20.187-45-45-45h-12.791l-30-30h42.791c41.355 0 75 33.645 75 75z" fill="url(#SVGID_1_)"/></g></g></g></svg>