<svg id="Capa_1" enable-background="new 0 0 512 512" height="512" viewBox="0 0 512 512" width="512" xmlns="http://www.w3.org/2000/svg" xmlns:xlink="http://www.w3.org/1999/xlink"><linearGradient id="SVGID_1_" gradientUnits="userSpaceOnUse" x1="256" x2="256" y1="512" y2="0"><stop offset="0" stop-color="#00b59c"/><stop offset="1" stop-color="#9cffac"/></linearGradient><g><g><g><path d="m316 422c8.284 0 15-6.716 15-15v-182c0-8.284-6.716-15-15-15s-15 6.716-15 15v182c0 8.284 6.716 15 15 15zm-60 0c8.284 0 15-6.716 15-15v-182c0-8.284-6.716-15-15-15s-15 6.716-15 15v182c0 8.284 6.716 15 15 15zm-60 0c8.284 0 15-6.716 15-15v-182c0-8.284-6.716-15-15-15s-15 6.716-15 15v182c0 8.284 6.716 15 15 15zm240-362h-105v-15c0-24.813-20.187-45-45-45h-60c-24.813 0-45 20.187-45 45v15h-105c-24.813 0-45 20.187-45 45v30c0 8.284 6.716 15 15 15h45v317c0 24.813 20.187 45 45 45h240c24.813 0 45-20.187 45-45v-317h45c8.284 0 15-6.716 15-15v-30c0-24.813-20.187-45-45-45zm-225-15c0-8.271 6.729-15 15-15h60c8.271 0 15 6.729 15 15v15h-90zm180 422c0 8.271-6.729 15-15 15h-240c-8.271 0-15-6.729-15-15v-317h270zm60-347h-390v-15c0-8.271 6.729-15 15-15h360c8.271 0 15 6.729 15 15z" fill="url(#SVGID_1_)"/></g></g></g></svg>