<svg id="Capa_1" enable-background="new 0 0 512 512" height="512" viewBox="0 0 512 512" width="512" xmlns="http://www.w3.org/2000/svg" xmlns:xlink="http://www.w3.org/1999/xlink"><linearGradient id="SVGID_1_" gradientUnits="userSpaceOnUse" x1="256" x2="256" y1="512" y2="0"><stop offset="0" stop-color="#fd5900"/><stop offset="1" stop-color="#ffde00"/></linearGradient><g><g><g><path d="m497 90c8.284 0 15-6.716 15-15v-60c0-8.284-6.716-15-15-15h-60c-8.284 0-15 6.716-15 15v45h-332v-45c0-8.284-6.716-15-15-15h-60c-8.284 0-15 6.716-15 15v60c0 8.284 6.716 15 15 15h45v332h-45c-8.284 0-15 6.716-15 15v60c0 8.284 6.716 15 15 15h60c8.284 0 15-6.716 15-15v-45h332v45c0 8.284 6.716 15 15 15h60c8.284 0 15-6.716 15-15v-60c0-8.284-6.716-15-15-15h-45v-332zm-45-60h30v30h-30zm-392 452h-30v-30h30zm0-422h-30v-30h30zm121 362h-91v-91h91zm0-121h-91v-90h91zm0-120h-91v-91h91zm120 241h-90v-91h90zm0-121h-90v-90h90zm0-120h-90v-91h90zm121 241h-91v-91h91zm0-121h-91v-90h91zm0-120h-91v-91h91zm60 271v30h-30v-30z" fill="url(#SVGID_1_)"/></g></g></g></svg>