<svg id="Capa_1" enable-background="new 0 0 512 512" height="512" viewBox="0 0 512 512" width="512" xmlns="http://www.w3.org/2000/svg" xmlns:xlink="http://www.w3.org/1999/xlink"><linearGradient id="SVGID_1_" gradientUnits="userSpaceOnUse" x1="256" x2="256" y1="512" y2="0"><stop offset="0" stop-color="#fd3a84"/><stop offset="1" stop-color="#ffa68d"/></linearGradient><g><g><g><path d="m508.746 487.671-155.481-195.753 75.392-75.392c5.858-5.858 5.858-15.355 0-21.213l-42.427-42.427c-37.749-37.751-96.424-40.439-137.138-9.86l-85.6-85.6 31.82-31.82c5.858-5.858 5.858-15.355 0-21.213-5.856-5.857-15.354-5.858-21.213 0-22.901 22.902-155.022 155.023-169.705 169.706-5.858 5.858-5.858 15.355 0 21.213 5.857 5.858 15.355 5.858 21.213 0l31.82-31.82 85.608 85.608c-30.77 41.095-27.486 99.792 9.852 137.13l42.427 42.426c2.929 2.929 6.768 4.394 10.606 4.394s7.678-1.464 10.606-4.394l75.393-75.393 195.753 155.481c5.967 4.74 14.544 4.253 19.936-1.139 5.389-5.388 5.88-13.965 1.138-19.934zm-302.827-90.833-31.82-31.82c-29.241-29.243-29.241-76.824 0-106.066 5.858-5.858 5.858-15.355 0-21.213l-95.459-95.459 63.64-63.64 95.46 95.459c2.813 2.813 6.628 4.394 10.606 4.394s7.794-1.581 10.606-4.394c29.311-29.31 76.751-29.313 106.065 0l31.82 31.82-74.12 74.12c-.001.001-.002.002-.004.004zm107.351-64.925 18.642-18.642 71.975 90.617z" fill="url(#SVGID_1_)"/></g></g></g></svg>