<svg id="Capa_1" enable-background="new 0 0 512 512" height="512" viewBox="0 0 512 512" width="512" xmlns="http://www.w3.org/2000/svg" xmlns:xlink="http://www.w3.org/1999/xlink"><linearGradient id="SVGID_1_" gradientUnits="userSpaceOnUse" x1="256" x2="256" y1="512" y2="0"><stop offset="0" stop-color="#5558ff"/><stop offset="1" stop-color="#00c0ff"/></linearGradient><g><g><g><path d="m358.866 153.134c-13.368-86.621-88.036-153.134-177.866-153.134-99.509 0-181 81.504-181 181 0 89.83 66.513 164.498 153.134 177.866 13.368 86.621 88.036 153.134 177.866 153.134 99.509 0 181-81.504 181-181 0-89.83-66.513-164.498-153.134-177.866zm-207.828 174.895c-68.958-13.845-121.038-74.507-121.038-147.029 0-83.262 67.738-151 151-151 72.522 0 133.184 52.08 147.029 121.038-96.896 1.577-175.414 80.094-176.991 176.991zm179.962-147.029c0 82.71-67.29 150-150 150 0-82.71 67.29-150 150-150zm0 301c-72.522 0-133.184-52.08-147.029-121.038 96.896-1.578 175.414-80.095 176.992-176.992 68.957 13.846 121.037 74.508 121.037 147.03 0 83.262-67.738 151-151 151z" fill="url(#SVGID_1_)"/></g></g></g></svg>