<svg id="Capa_1" enable-background="new 0 0 512 512" height="512" viewBox="0 0 512 512" width="512" xmlns="http://www.w3.org/2000/svg" xmlns:xlink="http://www.w3.org/1999/xlink"><linearGradient id="SVGID_1_" gradientUnits="userSpaceOnUse" x1="256" x2="256" y1="512" y2="0"><stop offset="0" stop-color="#fd5900"/><stop offset="1" stop-color="#ffde00"/></linearGradient><g><g><g><path d="m497 91c8.284 0 15-6.716 15-15v-61c0-8.284-6.716-15-15-15h-61c-8.284 0-15 6.716-15 15v46h-330v-46c0-8.284-6.716-15-15-15h-61c-8.284 0-15 6.716-15 15v61c0 8.284 6.716 15 15 15h46v330h-46c-8.284 0-15 6.716-15 15v61c0 8.284 6.716 15 15 15h61c8.284 0 15-6.716 15-15v-46h330v46c0 8.284 6.716 15 15 15h61c8.284 0 15-6.716 15-15v-61c0-8.284-6.716-15-15-15h-46v-330zm-46-61h31v31h-31zm-390 452h-31v-31h31zm0-421h-31v-31h31zm210.145 30c.628 32.521 3.291 59.099 7.163 81.982-9.293 2.869-18.202 5.837-27.051 8.787-18.334 6.111-36.254 12.085-56.951 17.022-7.056-28.187-12.242-61.277-13.159-107.792h89.998zm-180.145 0h60.145c.94 48.696 6.445 84.063 13.732 113.666-20.736 3.351-44.657 5.612-73.877 6.188zm0 149.855c32.522-.628 59.099-3.292 81.982-7.163 2.869 9.292 5.838 18.202 8.787 27.051 6.111 18.333 12.085 36.254 17.022 56.951-28.185 7.056-61.276 12.243-107.791 13.16zm0 180.145v-60.145c48.696-.94 84.063-6.444 113.666-13.732 3.351 20.736 5.612 44.657 6.188 73.877zm119.23-169.744c-2.621-7.862-5.216-15.648-7.715-23.61 21.551-5.192 40.016-11.345 58.228-17.416 7.862-2.621 15.649-5.216 23.61-7.715 5.192 21.551 11.345 40.016 17.416 58.228 2.621 7.862 5.216 15.648 7.715 23.61-21.551 5.192-40.016 11.345-58.228 17.416-7.862 2.621-15.649 5.216-23.61 7.715-5.192-21.551-11.345-40.015-17.416-58.228zm30.625 169.744c-.628-32.521-3.291-59.099-7.163-81.982 9.293-2.869 18.202-5.837 27.051-8.787 18.334-6.111 36.254-12.085 56.951-17.022 7.056 28.187 12.242 61.277 13.159 107.792h-89.998zm180.145 0h-60.145c-.94-48.696-6.445-84.063-13.732-113.666 20.736-3.351 44.657-5.612 73.877-6.188zm0-149.855c-32.522.628-59.099 3.292-81.982 7.163-2.869-9.292-5.838-18.202-8.787-27.051-6.111-18.333-12.085-36.254-17.022-56.951 28.186-7.056 61.277-12.242 107.792-13.159v89.998zm0-120c-48.696.94-84.063 6.444-113.666 13.732-3.351-20.736-5.612-44.657-6.188-73.877h119.854zm61 299.855v31h-31v-31z" fill="url(#SVGID_1_)"/></g></g></g></svg>