<svg id="Capa_1" enable-background="new 0 0 512 512" height="512" viewBox="0 0 512 512" width="512" xmlns="http://www.w3.org/2000/svg" xmlns:xlink="http://www.w3.org/1999/xlink"><linearGradient id="SVGID_1_" gradientUnits="userSpaceOnUse" x1="256" x2="256" y1="505.623" y2="6.378"><stop offset="0" stop-color="#fd3a84"/><stop offset="1" stop-color="#ffa68d"/></linearGradient><g><g><g><path d="m184.706 191.019c-23.394 23.394-23.394 61.458 0 84.853 23.393 23.393 61.458 23.394 84.853 0 23.448-23.448 23.451-61.401 0-84.853-23.448-23.448-61.402-23.451-84.853 0zm63.639 63.64c-11.696 11.697-30.729 11.697-42.426 0s-11.697-30.729 0-42.427c11.724-11.724 30.701-11.726 42.426 0 11.724 11.725 11.725 30.701 0 42.427zm259.249 89.299-89.59-89.372 8.931-8.931c3.789-2.723 6.265-7.157 6.265-12.178s-2.477-9.456-6.265-12.178l-210.529-210.528c-5.858-5.857-15.356-5.858-21.213 0l-190.799 190.799c-2.813 2.813-4.394 6.629-4.394 10.607s1.581 7.793 4.394 10.606l212.1 212.1c2.929 2.929 6.767 4.394 10.606 4.394 3.838 0 7.678-1.465 10.606-4.394l10.595-10.595 68.386 68.175c8.772 8.773 20.296 13.159 31.82 13.159 11.523 0 23.047-4.386 31.819-13.159l127.279-127.279c2.815-2.815 4.396-6.634 4.394-10.616s-1.586-7.798-4.405-10.61zm-280.494 59.105-190.887-190.886 169.587-169.586 190.887 190.887s-10.527 10.526-10.528 10.528c-.001.001-.003.003-.004.005zm132.014 68.187c-2.833 2.833-6.6 4.394-10.606 4.394-4.007 0-7.773-1.561-10.623-4.41l-68.37-68.159 127.276-127.275 78.983 78.791z" fill="url(#SVGID_1_)"/></g></g></g></svg>