<svg id="Capa_1" enable-background="new 0 0 512 512" height="512" viewBox="0 0 512 512" width="512" xmlns="http://www.w3.org/2000/svg" xmlns:xlink="http://www.w3.org/1999/xlink"><linearGradient id="SVGID_1_" gradientUnits="userSpaceOnUse" x1="256" x2="256" y1="512" y2="0"><stop offset="0" stop-color="#00b59c"/><stop offset="1" stop-color="#9cffac"/></linearGradient><g><g><g><path d="m375 452h90c8.284 0 15-6.716 15-15v-240c0-8.284-6.716-15-15-15h-90c-8.284 0-15 6.716-15 15v240c0 8.284 6.716 15 15 15zm15-240h60v210h-60zm-165 240h90c8.284 0 15-6.716 15-15v-360c0-8.284-6.716-15-15-15h-90c-8.284 0-15 6.716-15 15v360c0 8.284 6.716 15 15 15zm15-360h60v330h-60zm-165 360h90c8.284 0 15-6.716 15-15v-120c0-8.284-6.716-15-15-15h-90c-8.284 0-15 6.716-15 15v120c0 8.284 6.716 15 15 15zm15-120h60v90h-60zm407 150h-467v-467c0-8.284-6.716-15-15-15s-15 6.716-15 15v482c0 8.284 6.716 15 15 15h482c8.284 0 15-6.716 15-15s-6.716-15-15-15z" fill="url(#SVGID_1_)"/></g></g></g></svg>