<svg id="Capa_1" enable-background="new 0 0 512.001 512.001" height="512" viewBox="0 0 512.001 512.001" width="512" xmlns="http://www.w3.org/2000/svg" xmlns:xlink="http://www.w3.org/1999/xlink"><linearGradient id="SVGID_1_" gradientUnits="userSpaceOnUse" x1="256.001" x2="256.001" y1="512.001" y2="0"><stop offset="0" stop-color="#5558ff"/><stop offset="1" stop-color="#00c0ff"/></linearGradient><g><g><g><path d="m497.001 0h-60c-8.284 0-15 6.716-15 15v51.643c-43.565 35.884-88.115 53.357-136 53.357-81.116 0-159.802-40.877-196-62.689v-42.311c0-8.284-6.716-15-15-15h-60c-8.284 0-15 6.716-15 15v60c0 8.284 6.716 15 15 15h60c2.82 0 5.449-.793 7.703-2.146 19.677 11.407 45.863 24.929 76.164 36.481 38.379 14.632 75.353 23.048 110.18 25.133l-262.63 183.23c-5.373 3.749-7.691 10.55-5.727 16.8 1.965 6.25 7.758 10.502 14.31 10.502h172.449l85.644 144.643c2.741 4.628 7.688 7.358 12.905 7.358 7.785 0 14.304-5.969 14.951-13.762l29.234-352.759c12.848-2.65 25.509-6.448 37.898-11.41 24.746-9.911 49.183-24.728 72.74-44.069h56.179c8.284 0 15-6.716 15-15v-60.001c0-8.284-6.716-15-15-15zm-437 60h-30v-30h30zm214.937 388.875-66.029-111.517c-2.7-4.561-7.607-7.357-12.907-7.357h-133.285l235.7-164.442zm207.063-388.875h-30v-30h30z" fill="url(#SVGID_1_)"/></g></g></g></svg>