<svg id="Capa_1" enable-background="new 0 0 512.001 512.001" height="512" viewBox="0 0 512.001 512.001" width="512" xmlns="http://www.w3.org/2000/svg" xmlns:xlink="http://www.w3.org/1999/xlink"><linearGradient id="SVGID_1_" gradientUnits="userSpaceOnUse" x1="256.001" x2="256.001" y1="512.001" y2="0"><stop offset="0" stop-color="#a93aff"/><stop offset="1" stop-color="#ff81ff"/></linearGradient><g><g><g><path d="m497.001 271c-20.785 0-38.871-14.324-44.318-33.219 16.575-6.642 28.318-22.861 28.318-41.781 0-5.217-.902-10.224-2.542-14.887 21.996-18.213 33.542-38.806 33.542-60.113 0-34.389-28.32-65.809-79.745-88.472-47.594-20.976-110.189-32.528-176.255-32.528s-128.661 11.552-176.255 32.528c-51.425 22.664-79.745 54.083-79.745 88.472 0 29.214 20.17 55.957 58.33 77.336 25.327 14.19 58.212 25.51 94.972 32.884l-146.885 102.478c-5.373 3.749-7.691 10.55-5.727 16.8 1.965 6.25 7.758 10.502 14.31 10.502h172.479l85.637 143.68c2.746 4.607 7.682 7.321 12.883 7.321 7.791 0 14.303-5.975 14.95-13.759l21.71-261.24c27.038-3.324 52.899-8.719 76.042-15.854 5.57 8.234 13.796 14.526 23.435 17.656 2.667 15.18 10.04 29.191 21.454 40.349 14.411 14.088 33.38 21.847 53.41 21.847 8.284 0 15-6.716 15-15s-6.716-15-15-15zm-222.073 178.124-66.042-110.804c-2.705-4.54-7.601-7.32-12.885-7.32h-133.284c4.496-3.137 227.533-158.714 235.692-164.437-.855 10.287-22.253 267.784-23.481 282.561zm116.254-257.042c-20.031 6.272-42.429 11.134-65.982 14.343l5.749-69.182c.481-5.793-2.428-11.343-7.466-14.243-5.037-2.9-11.298-2.627-16.065.699l-118.91 82.96c-90.781-12.023-158.507-48.395-158.507-85.659 0-43.042 92.814-91 226-91s226 47.958 226 91c0 14.311-10.748 27.104-22.342 36.743-6.879-4.27-14.984-6.743-23.658-6.743-23.492 0-42.825 18.098-44.819 41.082zm44.819 18.918c-8.271 0-15-6.729-15-15s6.729-15 15-15 15 6.729 15 15-6.728 15-15 15z" fill="url(#SVGID_1_)"/></g></g></g></svg>